<svg xmlns="http://www.w3.org/2000/svg" viewBox="0 0 255.99 255.99"><defs><style>.cls-1{fill:#e85805;}</style></defs><title>instagram</title><g id="Capa_2" data-name="Capa 2"><g id="Capa_1-2" data-name="Capa 1"><g id="Capa_2-2" data-name="Capa 2"><g id="Capa_1-2-2" data-name="Capa 1-2"><path class="cls-1" d="M128,23.06c34.18,0,38.23.13,51.72.75,12.48.57,19.26,2.65,23.77,4.41a39.66,39.66,0,0,1,14.72,9.58,39.66,39.66,0,0,1,9.57,14.72c1.75,4.51,3.84,11.29,4.41,23.77.62,13.5.75,17.55.75,51.72s-.13,38.23-.75,51.72c-.57,12.48-2.65,19.26-4.41,23.77a42.39,42.39,0,0,1-24.29,24.29c-4.51,1.75-11.29,3.84-23.77,4.41-13.5.62-17.54.75-51.72.75s-38.23-.13-51.72-.75c-12.48-.57-19.26-2.65-23.77-4.41a39.65,39.65,0,0,1-14.72-9.57,39.66,39.66,0,0,1-9.57-14.72c-1.75-4.51-3.84-11.29-4.41-23.77-.62-13.5-.75-17.55-.75-51.72s.13-38.23.75-51.72C24.38,63.8,26.46,57,28.22,52.51a39.66,39.66,0,0,1,9.57-14.72,39.66,39.66,0,0,1,14.72-9.58c4.49-1.75,11.29-3.83,23.77-4.4,13.5-.62,17.55-.75,51.72-.75M128,0C93.24,0,88.88.15,75.23.77S52.3,3.56,44.15,6.72A62.74,62.74,0,0,0,21.48,21.48,62.74,62.74,0,0,0,6.72,44.16C3.56,52.3,1.39,61.6.77,75.23S0,93.24,0,128s.15,39.12.77,52.77,2.79,22.93,5.95,31.07a62.75,62.75,0,0,0,14.76,22.67,62.74,62.74,0,0,0,22.67,14.76c8.14,3.16,17.45,5.33,31.07,5.95s18,.77,52.77.77,39.12-.15,52.77-.77,22.93-2.79,31.07-5.95a65.45,65.45,0,0,0,37.44-37.44c3.16-8.14,5.33-17.45,5.95-31.07s.77-18,.77-52.77-.15-39.12-.77-52.77-2.79-22.93-5.95-31.07a62.74,62.74,0,0,0-14.76-22.67A62.74,62.74,0,0,0,211.84,6.72C203.7,3.56,194.4,1.39,180.77.77S162.76,0,128,0Zm0,62.27A65.73,65.73,0,1,0,193.73,128h0A65.73,65.73,0,0,0,128,62.27Zm0,108.4A42.67,42.67,0,1,1,170.67,128h0A42.67,42.67,0,0,1,128,170.67Zm83.69-111a15.36,15.36,0,1,1-15.36-15.36,15.36,15.36,0,0,1,15.36,15.36Z"/></g></g></g></g></svg>