<svg xmlns="http://www.w3.org/2000/svg" viewBox="0 0 385.44 165.58"><defs><style>.cls-1{fill:#fff;}</style></defs><title>logo</title><g id="Capa_2" data-name="Capa 2"><g id="Capa_1-2" data-name="Capa 1"><path class="cls-1" d="M57.9,4.92a10.51,10.51,0,0,1-.28,1.8,5.29,5.29,0,0,0-.09,1.7,2,2,0,0,1-.57.85l-.19.19a3,3,0,0,0-.47,1.89,6.39,6.39,0,0,1-.38,2.17,14.88,14.88,0,0,1-2.65,3.36,16.5,16.5,0,0,0-2.65,3.26q-3.78,6.33-10.49,19a7.78,7.78,0,0,1-.95,2.46,1.17,1.17,0,0,1-.66.28l-.19-.09a1.29,1.29,0,0,0-.76.47q-2.55,4-10.16,14.18t-8.84,12.1L10,75a3.79,3.79,0,0,1-2.74-1.23A3.47,3.47,0,0,1,6.1,71a5.28,5.28,0,0,1,1.23-3,3.49,3.49,0,0,1,2.84-1.42l.76,1.32a3.81,3.81,0,0,1-.95,2l-.28.38a2.16,2.16,0,0,0-.47,1.23l.47,1.42q1.79-.57,5.58-4.54,1.32.1,3.5-2.08a90.91,90.91,0,0,0,5.1-9.45Q25,57,25.19,55.39t1.13-1.61q.85-2.46,3.4-8.7l2.84-5.86a28.32,28.32,0,0,0,2.17-5.86l1.8-.85.66.09a56.24,56.24,0,0,0,2.65-6.71q.76-.28,1.61-2.46,1.42-3.21,2-4.16a5.19,5.19,0,0,0,.66-1.42q-.1-1.32-.09-3.4l2.27-1,.66.09q1.51-1.89,4.44-4.92,3.87-3.87,5.2-3.88ZM80.4,21.46q-.09,1.23-6.24,10.68a8.94,8.94,0,0,0-1.09,1.42q-.62.95-1.47,2.55a20.18,20.18,0,0,1-2.93,3.73,9.43,9.43,0,0,1-1.7.71,10.15,10.15,0,0,1,1.89,1.32,20.14,20.14,0,0,1,3.5,5.2q1.51,2.84,2.93,5.58a4.45,4.45,0,0,1,.47,2.17,19.36,19.36,0,0,1-.66,4.4q-.66,2.69-.66,3a53,53,0,0,1-3.31,5.39q-.85,1.42-3.4,5.2-.95,1.51-2.27,1.13a3.07,3.07,0,0,0-.57-.19,20.71,20.71,0,0,1-3.59,2.74A13.55,13.55,0,0,1,53.93,79a19.18,19.18,0,0,0-7.47,1.42l-1.51-.66-7.28-1.7q-1.42-.95-6.43-4.73a7.62,7.62,0,0,1-2.74-3.59,5.87,5.87,0,0,1-.57-2.65q0-1.13,3.65-2.55.84,0,.66,4.31l2.25,2.25L38.89,75l8.23,3.29,2.65-.94a4.18,4.18,0,0,1,1,.38l.28.09c.06,0,.25-.32.57-.95a7.38,7.38,0,0,0,2.27-.28,13.69,13.69,0,0,1,1.61-.47q1.13-.28,3.21-1,2.08-1.13,4.25-2.41a10.39,10.39,0,0,0,3.31-2.88A23.56,23.56,0,0,0,68.11,68a22,22,0,0,1,1.13-2.55,6.93,6.93,0,0,0,.61-3.21,7.38,7.38,0,0,1,.43-2.93,16.18,16.18,0,0,0-.85-5.67q-.09-.57-2.36-6.71l-.28-.57a5.25,5.25,0,0,0-1.42-2.17A12.92,12.92,0,0,1,64,42.82l-.28-.57a12.35,12.35,0,0,1-6.43,3.12q-3.5.57-7,1l-1.42-.57-.85.47a11.22,11.22,0,0,0-1.42-1.13,27.26,27.26,0,0,1-3-1.7,4.11,4.11,0,0,1-1.7-2.93q-.09-4.16,4.54-6.14a10.14,10.14,0,0,1,5.2-.28l3,1.13a9.68,9.68,0,0,1,2,.76c.19.06.31.06.38,0l5.1,2.36a2.13,2.13,0,0,1,1,.57,5.42,5.42,0,0,1,1.7.57,31.31,31.31,0,0,0,4.44-5.2,21.58,21.58,0,0,0,1.7-1.7q.38-.85,1.23-2.55.57-1.61,1.89-4.82a16.6,16.6,0,0,0-.85-5.67Q73.21,19,70.94,13l-.28-.66a4.56,4.56,0,0,0-1.42-2.08A46.55,46.55,0,0,0,62.44,5a14.71,14.71,0,0,0-7.75-2.46,14.89,14.89,0,0,0-2.93.28L50,2.27,38.62,4a2,2,0,0,0-1.7-.66,41,41,0,0,1-7,4.17A14.46,14.46,0,0,0,25.86,8a15.83,15.83,0,0,1-5.67,3.31l-4,3.09q-1,1.89-2.07,3.69A8.12,8.12,0,0,0,12.9,22a17.45,17.45,0,0,1-.76,2.75,10.87,10.87,0,0,0-.66,2.65l2.84,3.22.38-.85a25.89,25.89,0,0,0,2.93,2.46,6.15,6.15,0,0,0,4-1.89l-1-1.8q.19-1.42,4.63-3.59l1.7,1.7q-3,7.28-9.74,7.37-2.36-1.7-7.18-4.92l-.28-1.7V22.88q.28-3.21,1.61-4A13.84,13.84,0,0,0,12.81,16l2.27-2.46,2.08-1.61L20.65,8l3.88-1.7A8.38,8.38,0,0,1,27.74,4q1.7.38,6.81-.95A38,38,0,0,0,41.26.66H44A4.11,4.11,0,0,0,46.55,0a32,32,0,0,0,5.77,1l2.27-1,2.93,1.51h.95a13.41,13.41,0,0,1,2.08.57q.28.1.38,0L66,4.35a2.13,2.13,0,0,1,1,.57,12.93,12.93,0,0,1,5.67,2.93q2.17,2,5.39,7.66Q80.4,19.76,80.4,21.46ZM62.34,41.21a16.94,16.94,0,0,0-11.53-4.63,21.55,21.55,0,0,0-2.84.19l-2.17.66a6,6,0,0,0-.85,2.17q-.19,1.8,2,2.74L51,44.24a2.78,2.78,0,0,1,2.74-.71q1.79.33,2.46-.52a4.48,4.48,0,0,0,2.17-.57Q59.79,42.07,62.34,41.21Z"/><path class="cls-1" d="M114.14,42.82,114,44.14q-1,1.51-10.49,13-8.32,10.3-9.36,12.48a59.68,59.68,0,0,0,11.06-6.14,36.87,36.87,0,0,0,5.2-4l-1.7,4.16a110.81,110.81,0,0,1-10,6.47q-8.18,5-8.84,5A2.3,2.3,0,0,1,89,75q.85-2.17,6.14-9.83,4.35-6.43,4.63-7.75A12.6,12.6,0,0,0,95.71,62l-1.8.57-16.83,16-1.32-.19v-.47q0-1.7,2.74-6.52,1.89-3.31,3.78-6.71a53.56,53.56,0,0,1,8.51-11.82q6.71-7.18,12-6.81h1a9.65,9.65,0,0,1,2,1.61q1.89-2.08,5.77-6l1.42-.38Q114.14,41.31,114.14,42.82Zm-9.92,7.29q-.28-2.37-1.51-2.37-2.46,0-10.49,8.63-7.37,7.87-9.45,11.48-.76,1.42-2.46,5.5Q83,71.27,92.87,61.59,103.08,51.82,104.22,50.11Z"/><path class="cls-1" d="M158.1,7.84q0,2.64-5.72,10.71T144,28.23q-1.7,1.13-3.5,2.27A11.74,11.74,0,0,0,137.58,33Q123.21,51.63,118.11,63q6.24-5.67,12.38-11.34,9.36-8.22,13.61-8.22,1.89,0,1.89,2.17,0,3-5.29,10.4t-8.13,8.7l-.47,1.8-7.75,11q-4.63,7.28-4.63,12.1A6,6,0,0,0,121,93a3.63,3.63,0,0,0,2.84,1.84,5.26,5.26,0,0,0,3-1.09,3,3,0,0,0,1.56-2.41q0-.76-1.18-1.32t-1.18-1q0-1.42,2.36-1.42,2.84,0,2.84,2.17a6.57,6.57,0,0,1-2.46,4.68A7.19,7.19,0,0,1,124,96.7q-1.8,0-4.35-2.5T117.07,90q0-4.92,6.05-15.41,3-5.2,11.15-17.49,6-9,5.86-10.21-4.73,1.8-12.1,8.89L116.13,68.06q-6.24,6.52-8.6,7.09-.38-2.17,5.91-12.27t6.29-9.72a6.21,6.21,0,0,0-.52-1.51,7.42,7.42,0,0,1-.52-1.42Q121.8,47.4,130.12,35q10.11-15,14.08-20.11,7.94-10,12.19-10,.66,0,1.18,1.09A4.46,4.46,0,0,1,158.1,7.84Zm-1.89.38-.47-.94q-1.23,0-8.46,10.07t-7.8,12.42L141.41,28a5.76,5.76,0,0,1,2.32-1.27Q146.85,23,150,19.33q4.44-5.27,5-7.63Q155.35,10.48,156.21,8.22Z"/><path class="cls-1" d="M159.23,46.51a2.1,2.1,0,0,1-.85,1.23,9.74,9.74,0,0,0-1.23,1A40.2,40.2,0,0,0,154,54.16q-2.08,3.88-4.25,4.73-.95,2-3.31,6a4.1,4.1,0,0,1-.95.85l-.38.38a7,7,0,0,0-2.08,3.59,20.16,20.16,0,0,0-1,2.27c0,.13,0,.19.09.19q.47,0,3.12-2.65a46.56,46.56,0,0,0,3.88-4.25l-.28,1.32q-.28,1.51-3.5,5-3.5,3.59-5.29,3.59-1.32,0-1-1.61.09-.47.57-2a8.26,8.26,0,0,0,.09-.85A186.54,186.54,0,0,1,150.34,51.9a5.43,5.43,0,0,0-.28-.95H150a6,6,0,0,1-1.8.09q-.47,0-1.8-.09l11.06-6.14Q159.7,44.81,159.23,46.51ZM171.33,27A11.24,11.24,0,0,1,167.26,32q-.66.57-6,4a44.25,44.25,0,0,0-4.63,3.59,67.35,67.35,0,0,1,9.07-11.34Q166.13,27.79,171.33,27Z"/><path class="cls-1" d="M189.1,42.82l-.19,1.32q-1,1.51-10.49,13-8.32,10.3-9.36,12.48a59.73,59.73,0,0,0,11.06-6.14,36.79,36.79,0,0,0,5.2-4l-1.7,4.16a110.74,110.74,0,0,1-10,6.47q-8.18,5-8.84,5A2.29,2.29,0,0,1,164,75q.85-2.17,6.14-9.83,4.35-6.43,4.63-7.75A12.6,12.6,0,0,0,170.67,62l-1.8.57L152,78.55l-1.32-.19v-.47q0-1.7,2.74-6.52,1.89-3.31,3.78-6.71a53.56,53.56,0,0,1,8.51-11.82q6.71-7.18,12-6.81h1a9.66,9.66,0,0,1,2,1.61q1.89-2.08,5.77-6l1.42-.38Q189.1,41.31,189.1,42.82Zm-9.93,7.29q-.28-2.37-1.51-2.37-2.46,0-10.49,8.63-7.37,7.87-9.45,11.48-.76,1.42-2.46,5.5,2.74-2.09,12.57-11.76Q178,51.82,179.17,50.11Z"/><path class="cls-1" d="M298.17,24.23l-.47,4.92q-3.4,6.15-9,18.84a42.41,42.41,0,0,1-7.56,12.21q-5.2,5.68-17.86,13.35L262,73.16l-8.51,3.21-4.06-.66-2.46.66-6.52-.69a34.45,34.45,0,0,1-6.52-1.39l-.57.09q-6.43.28-12-9.07-5.1-8.6-4.73-16.07l1.13-2.65q-.47-3.5,1.42-10.4,2.08-7.66,4.82-7.66a1.64,1.64,0,0,1,1,.38,14.14,14.14,0,0,0,1.23-4.16,24.55,24.55,0,0,1,.85-4.25q6.81-6,10-8.32,6.9-5,11.53-5a38.2,38.2,0,0,1-5.77,2.93,10.28,10.28,0,0,0-4.92,5q-5.1,4.44-6.62,7.75l.19,1.7a7.36,7.36,0,0,1-3.12,6.14l.76,2.08q-4.06,5.29-4.44,16.73A22.11,22.11,0,0,0,230.58,66a28.32,28.32,0,0,0,14.65,8.22q17.11.66,29.68-13.8Q286,47.74,291.08,26.66q-.47-4.54-1-9.22a17.93,17.93,0,0,0-2.46-7.61,18.58,18.58,0,0,0-7.28-6.24q-.66,0-1.13,1.89a8.85,8.85,0,0,0-2.46-1.89,1.85,1.85,0,0,0-.95.38,20.91,20.91,0,0,0-4-.57q-6.9,0-16.83,9.83t-10.21,17.3l-.28,7.85,3.78,4h1.61l5.86-7.18-.19-.66-2.46-2.65L253,31.1l2.74-1.8a3,3,0,0,1,2.93,2.08,10.06,10.06,0,0,1,.47,4,8.57,8.57,0,0,1-3,6.33,9.61,9.61,0,0,1-6.62,2.65q-3.78,0-6.43-3.88A12.25,12.25,0,0,1,240.7,33l.38-2.09q1.89-1.42,1.32-5.49,8-13.07,13.14-17.34,6.52-5.4,19.38-7.77l4-.09q9.36,2.93,12.48,5.3a6.17,6.17,0,0,1,2.27,3.69,5.39,5.39,0,0,0,2.65,3.6l1.32,9.75Q298.26,22.81,298.17,24.23Z"/><path class="cls-1" d="M336.82,6.33q-2.55,4.26-5.11,8.61a48.66,48.66,0,0,1-6,8.14q-.95.85-8.79,8.33a62.69,62.69,0,0,0-8,8.9q-3.12,5.4-9.93,15.9-2.55,3.41-7.47,10.41,0,.1-3.88,4.54-2.93,3.31-2.84,4.73l5.2-.76q7.47,0,8.22,1.89-.19,1.13-2,1.61a8.85,8.85,0,0,0-5.67-1.8,24,24,0,0,0-9,2.27q-5.34,2.27-6.76,2.27l-.09-.57q0-.29.76-.81a5,5,0,0,0,.9-.71l14.7-18.17a105.9,105.9,0,0,0,11.34-16.47q1.42-1.23,3.31-5.49a26.41,26.41,0,0,1,3.21-6.25l11.72-15.52q7.28-8.8,14.56-12.49l1.32.66A.85.85,0,0,1,336.82,6.33Zm-2.17.76q-2.55.76-11.25,11.63A160.4,160.4,0,0,0,312.81,33q4.25-3.59,12.38-11.15l.09-1.51A29.24,29.24,0,0,0,334.64,7.09Z"/><path class="cls-1" d="M327.43,46.5a2.1,2.1,0,0,1-.85,1.23,9.8,9.8,0,0,0-1.23,1,40.29,40.29,0,0,0-3.12,5.39Q320.16,58,318,58.88q-.95,2-3.31,6a4.1,4.1,0,0,1-.95.85l-.38.38a7,7,0,0,0-2.08,3.59,20.32,20.32,0,0,0-1,2.27c0,.13,0,.19.09.19q.47,0,3.12-2.65a46.64,46.64,0,0,0,3.88-4.25L317,66.54q-.28,1.51-3.5,5-3.5,3.59-5.29,3.59-1.32,0-1-1.61.09-.47.57-2a8.26,8.26,0,0,0,.09-.85,186.54,186.54,0,0,1,10.68-18.81,5.57,5.57,0,0,0-.28-.95h-.09a6,6,0,0,1-1.8.09q-.47,0-1.8-.09l11.06-6.14Q327.91,44.79,327.43,46.5ZM339.53,27a11.25,11.25,0,0,1-4.06,4.92q-.66.57-6,4a44.17,44.17,0,0,0-4.63,3.59A67.36,67.36,0,0,1,334,28.16Q334.33,27.78,339.53,27Z"/><path class="cls-1" d="M330.31,50.19l1.42-.19,6.9-3.78,1.51.66a2.71,2.71,0,0,0,2.13-1.42,3.49,3.49,0,0,1,1.94-1.61,137.63,137.63,0,0,1-7.47,13.23q-4.73,7.85-5.29,12.29l-.28,2.17q5.48-5.76,6.9-5.77,1.13-3.21,5.2-6L347,57.66a27,27,0,0,1,6.14-9.31,29.68,29.68,0,0,1,8.89-6.76q-.76,2.84-5.11,7t-5.29,7l-5.48,6-2,2a57,57,0,0,1-7.09,5.86Q331,74,329.74,75.15a18.12,18.12,0,0,1-1.84-.66,1.4,1.4,0,0,1-.9-1.42q0-2.93,3.21-10.3a53.34,53.34,0,0,1,5.29-9.93l1.61-2.08L335,50.48a12.68,12.68,0,0,0-1.75,1.13,7.87,7.87,0,0,1-1.65,1q-1.7,0-1.32-1.8Z"/><path class="cls-1" d="M385.32,47.93a66.22,66.22,0,0,1-6.14,3.69l-1,3.12q-1.23,3.69-9.45,12.48-8.89,9.36-12.76,9.36-3.12,0-2.74-3.78.09-.57.19-1.42a1.16,1.16,0,0,0-.76-1,28.67,28.67,0,0,0,2.74-5.67q0-.94.09-2.65,2.17-2.08,2.93-2.93a9.35,9.35,0,0,0,2.27-3.4q.94-3,7.56-7.94t10.11-4.92a14.36,14.36,0,0,1,3.4.29q-4.07.57-8.79,4.27a25.43,25.43,0,0,0-5.77,6q-.95,2.28-3,6.83a16,16,0,0,0-2.27,1.61,25.15,25.15,0,0,1-1.32,2.84,28.92,28.92,0,0,0-3,4.17q-.28.66-1.8,4.65-.1.29.38.47,3.21,0,10.68-9.11,6.81-8.35,8-12.14.19-.66-.95-1.23T373,49.92q.28-.95,4.44-3.41A2.45,2.45,0,0,1,380,48.3l3.78-2.36.19.28.38.19Q385.79,46.89,385.32,47.93Z"/><path class="cls-1" d="M166.57,123.9H162.3V112.59H149.24V123.9H145V97.35h4.27v11.2H162.3V97.35h4.27Z"/><path class="cls-1" d="M176.51,111.83a7.89,7.89,0,0,1,3.08-3,9.21,9.21,0,0,1,4.49-1.08,9.11,9.11,0,0,1,4.47,1.08,7.58,7.58,0,0,1,3,3,8.91,8.91,0,0,1,0,8.43,7.69,7.69,0,0,1-3,3A9.06,9.06,0,0,1,184,124.3a9.67,9.67,0,0,1-4.45-1,7.42,7.42,0,0,1-3.08-2.88,8.47,8.47,0,0,1-1.11-4.4A8.14,8.14,0,0,1,176.51,111.83Zm4.29,7.71a4.11,4.11,0,0,0,3.17,1.4,4.16,4.16,0,0,0,3.23-1.39,5,5,0,0,0,1.26-3.5,5.08,5.08,0,0,0-1.26-3.52,4.14,4.14,0,0,0-3.23-1.4,4.07,4.07,0,0,0-3.17,1.44,5.07,5.07,0,0,0-1.28,3.48A5,5,0,0,0,180.79,119.54Z"/><path class="cls-1" d="M206.15,101.69v6.79h4v3.21h-4V123.9h-4.09V111.68H199.4v-3.21h2.66v-6.79Z"/><path class="cls-1" d="M228.73,119.6l1.86,3a12,12,0,0,1-2.66,1.22,9,9,0,0,1-2.74.46,9.55,9.55,0,0,1-4.62-1.06,7.36,7.36,0,0,1-3-2.92,8.61,8.61,0,0,1-1-4.27,7.78,7.78,0,0,1,1.17-4.16,8.49,8.49,0,0,1,3.17-3,8.87,8.87,0,0,1,4.38-1.11,7.58,7.58,0,0,1,5.22,1.84,9.17,9.17,0,0,1,2.77,5.2l-11.89,4a4.14,4.14,0,0,0,1.64,1.46,5,5,0,0,0,2.26.51A6.1,6.1,0,0,0,228.73,119.6Zm-6.95-7.26a5,5,0,0,0-1.22,3.5,4,4,0,0,0,0,.62l8.1-2.88a4.64,4.64,0,0,0-1.39-1.86,3.68,3.68,0,0,0-2.37-.73A4.06,4.06,0,0,0,221.78,112.34Z"/><path class="cls-1" d="M245,95.45V123.9h-4.09V95.45Z"/><path class="cls-1" d="M25.3,155.48a4.74,4.74,0,0,1,1.59,3.58,5.05,5.05,0,0,1-1.25,3.44,7.44,7.44,0,0,1-3.29,2.12,13.78,13.78,0,0,1-4.46.7H10.46V141.8h6.3q8.67,0,8.67,6a5.56,5.56,0,0,1-1.1,3.43,6.36,6.36,0,0,1-3.19,2.17A9.09,9.09,0,0,1,25.3,155.48Zm-12.87-2.68h5.26A6.25,6.25,0,0,0,22,151.5a4.42,4.42,0,0,0,1.43-3.44,4,4,0,0,0-1.73-3.56,8.76,8.76,0,0,0-4.86-1.14H12.43Zm10.44,9.8a4,4,0,0,0-.14-7.05,10.22,10.22,0,0,0-5-1.19H12.43v9.47h5.38A9.57,9.57,0,0,0,22.87,162.6Z"/><path class="cls-1" d="M38.33,147.58a13.86,13.86,0,0,1,5.3-4.4,16.24,16.24,0,0,1,7.27-1.64,16.49,16.49,0,0,1,7.31,1.64,13.8,13.8,0,0,1,5.34,4.4,10.16,10.16,0,0,1,0,12A13.53,13.53,0,0,1,58.21,164a16.78,16.78,0,0,1-7.31,1.61A17.06,17.06,0,0,1,43.59,164a13.11,13.11,0,0,1-5.28-4.3,10.35,10.35,0,0,1-1.95-6.13A10.15,10.15,0,0,1,38.33,147.58Zm1.73,11.24a11.86,11.86,0,0,0,4.54,3.79A14,14,0,0,0,50.86,164a14.58,14.58,0,0,0,6.36-1.39,11.59,11.59,0,0,0,4.6-3.79,9,9,0,0,0,0-10.5,12,12,0,0,0-4.6-3.82,14.68,14.68,0,0,0-12.65,0A11.61,11.61,0,0,0,40,148.39a9.1,9.1,0,0,0-1.65,5.23A8.81,8.81,0,0,0,40.06,158.82Z"/><path class="cls-1" d="M79.61,160.89a6.48,6.48,0,0,0,2.79,2.32,9.65,9.65,0,0,0,4,.81,9.76,9.76,0,0,0,4.08-.81,6.63,6.63,0,0,0,2.81-2.32,6.12,6.12,0,0,0,1-3.53V141.8h1.93v15.66A7.33,7.33,0,0,1,95,161.8a8.23,8.23,0,0,1-3.51,2.8,13.39,13.39,0,0,1-10,0,8.23,8.23,0,0,1-3.51-2.8,7.33,7.33,0,0,1-1.28-4.34V141.8h2v15.56A6.21,6.21,0,0,0,79.61,160.89Z"/><path class="cls-1" d="M125.58,141.8v1.56h-8.39v22h-2v-22h-8.31V141.8Z"/><path class="cls-1" d="M138.35,141.8v23.51h-2V141.8Z"/><path class="cls-1" d="M179.59,165.31H167.22a17.79,17.79,0,0,1-3.05.26,17.06,17.06,0,0,1-7.31-1.56,13.11,13.11,0,0,1-5.28-4.3,10.35,10.35,0,0,1-1.95-6.13,10.15,10.15,0,0,1,2-6,13.86,13.86,0,0,1,5.3-4.4,16.24,16.24,0,0,1,7.27-1.64,16.49,16.49,0,0,1,7.31,1.64,13.8,13.8,0,0,1,5.34,4.4,10.12,10.12,0,0,1,.1,11.85,13.5,13.5,0,0,1-5,4.32h7.67Zm-9.09-2.68a11.59,11.59,0,0,0,4.6-3.79,8.94,8.94,0,0,0,1.69-5.25,8.82,8.82,0,0,0-1.71-5.21,12,12,0,0,0-4.6-3.82,14.07,14.07,0,0,0-6.3-1.42,13.89,13.89,0,0,0-6.32,1.44,11.81,11.81,0,0,0-4.54,3.86,9,9,0,0,0-1.67,5.2,8.81,8.81,0,0,0,1.69,5.2,11.86,11.86,0,0,0,4.54,3.79,14,14,0,0,0,6.26,1.41A14.58,14.58,0,0,0,170.49,162.63Z"/><path class="cls-1" d="M193.68,160.89a6.48,6.48,0,0,0,2.79,2.32,9.65,9.65,0,0,0,4,.81,9.76,9.76,0,0,0,4.08-.81,6.63,6.63,0,0,0,2.81-2.32,6.12,6.12,0,0,0,1-3.53V141.8h1.93v15.66a7.33,7.33,0,0,1-1.29,4.34,8.23,8.23,0,0,1-3.51,2.8,13.39,13.39,0,0,1-10,0,8.23,8.23,0,0,1-3.51-2.8,7.33,7.33,0,0,1-1.28-4.34V141.8h2v15.56A6.21,6.21,0,0,0,193.68,160.89Z"/><path class="cls-1" d="M240.86,141.8v1.56H225.24v9.34h14.05v1.56H225.24v9.5h16.18v1.56H223.27V141.8Z"/><path class="cls-1" d="M274.31,158v1.39h-7.43V158Z"/><path class="cls-1" d="M312.81,143.49a15.73,15.73,0,0,0-3.45-.4,7.89,7.89,0,0,0-4.5,1.14,3.42,3.42,0,0,0-1.69,2.93,2.86,2.86,0,0,0,.9,2.14,7.19,7.19,0,0,0,2.31,1.46q1.4.58,3.61,1.28a28.42,28.42,0,0,1,4,1.49,7.82,7.82,0,0,1,2.67,2.07,5.09,5.09,0,0,1,1.08,3.36,5.63,5.63,0,0,1-1.12,3.46,7.22,7.22,0,0,1-3.15,2.33,12.2,12.2,0,0,1-4.64.83,18.69,18.69,0,0,1-9-2.42l.92-1.32a16.31,16.31,0,0,0,3.65,1.62,13.76,13.76,0,0,0,4.22.7,10.15,10.15,0,0,0,3.43-.58,6.18,6.18,0,0,0,2.65-1.75,4.16,4.16,0,0,0,1-2.83,3.8,3.8,0,0,0-.94-2.62,7,7,0,0,0-2.37-1.71,30.46,30.46,0,0,0-3.59-1.31,37.59,37.59,0,0,1-4-1.41,7.86,7.86,0,0,1-2.63-1.8,3.93,3.93,0,0,1-1.06-2.81,4.55,4.55,0,0,1,1-2.93,6.66,6.66,0,0,1,2.85-2,11.63,11.63,0,0,1,4.08-.75,19.59,19.59,0,0,1,4,.43,20.81,20.81,0,0,1,3.67,1.09l-.76,1.26A22.45,22.45,0,0,0,312.81,143.49Z"/><path class="cls-1" d="M342.14,143.51a5.71,5.71,0,0,1,2.39,5,6.52,6.52,0,0,1-1,3.44,6.84,6.84,0,0,1-3,2.57,11.68,11.68,0,0,1-5.08,1h-4.42v9.87h-2V141.8h6.58A10.89,10.89,0,0,1,342.14,143.51ZM339.67,153a5.29,5.29,0,0,0,2.27-2.1,5.21,5.21,0,0,0,.66-2.47,4.49,4.49,0,0,0-1.77-3.69,7.74,7.74,0,0,0-4.94-1.41h-4.82v10.53h4.42A8.82,8.82,0,0,0,339.67,153Z"/><path class="cls-1" d="M371.19,157.53H358.63l-3.77,7.78h-2l12-24.54h.16l12,24.54h-2.21Zm-.72-1.52L365,144.45,359.35,156Z"/><rect class="cls-1" y="113.31" width="128" height="3.38"/><rect class="cls-1" x="256.5" y="113.81" width="128" height="3.38"/></g></g></svg>