<svg xmlns="http://www.w3.org/2000/svg" viewBox="0 0 512 384">
    <defs>
        <style>
            .cls-1{fill:#e85805;}
        </style>
    </defs>
    <title>mail</title>
    <g id="Capa_2" data-name="Capa 2">
        <g id="Layer_1" data-name="Layer 1">
            <path class="cls-1" d="M448,0H64A64,64,0,0,0,0,64V320a64,64,0,0,0,64,64H448a64,64,0,0,0,64-64V64A64,64,0,0,0,448,0ZM342.66,170.78,478.13,54.69A30.84,30.84,0,0,1,480,64V320c0,2.22-.84,4.19-1.28,6.28ZM448,32c2.13,0,4,.81,6,1.22L256,202.94,58,33.22c2-.41,3.88-1.22,6-1.22ZM33.27,326.25c-.44-2.09-1.27-4-1.27-6.25V64a30.85,30.85,0,0,1,1.89-9.31L169.31,170.75ZM64,352a30.79,30.79,0,0,1-9.12-1.84L193.63,191.59l52,44.53a15.91,15.91,0,0,0,20.81,0l52-44.53L457.13,350.16A30.58,30.58,0,0,1,448,352Z"/>
        </g>
    </g>
</svg>