<svg xmlns="http://www.w3.org/2000/svg" viewBox="0 0 67.83 123.71">
    <defs>
        <style>.cls-1{fill:#fff;}</style>
    </defs>
    <title>smartphone</title>
    <g id="Capa_2" data-name="Capa 2">
        <g id="Capa_1-2" data-name="Capa 1">
            <path class="cls-1" d="M9.33,0C4.17,0,0,3.8,0,8.5V115.21c0,4.7,4.17,8.5,9.33,8.5H58.5c5.16,0,9.33-3.8,9.33-8.5V8.5c0-4.7-4.17-8.5-9.33-8.5ZM53.75,3.23A1.74,1.74,0,1,1,52,5,1.74,1.74,0,0,1,53.75,3.23ZM28,4.14H39.8a.57.57,0,0,1,0,1.13H28a.57.57,0,0,1,0-1.13ZM9.37,4.75a.56.56,0,0,1,.57.57.57.57,0,1,1-1.13,0A.56.56,0,0,1,9.37,4.75Zm2,0a.55.55,0,0,1,.57.52.58.58,0,0,1-.57.57.55.55,0,0,1-.52-.57A.51.51,0,0,1,11.38,4.8ZM3.1,10.51H64.73V110.64H3.1ZM26.46,115H41.37a1.71,1.71,0,0,1,1.87,1.48v1.7a1.71,1.71,0,0,1-1.87,1.48H26.46a1.71,1.71,0,0,1-1.87-1.48v-1.7A1.71,1.71,0,0,1,26.46,115Z"/>
        </g>
    </g>
</svg>