<svg xmlns="http://www.w3.org/2000/svg" viewBox="0 0 811.59 521.17">
    <defs>
        <style>.cls-1ta{fill:#e85805;}</style>
    </defs>
    <title>tripadvisor</title>
    <g id="Capa_2" data-name="Capa 2">
        <g id="tripadvisor">
            <path class="cls-1ta" d="M203,373.6a71.94,71.94,0,1,0-71.93-72h0a71.94,71.94,0,0,0,71.88,72H203ZM608.53,229.73a71.94,71.94,0,1,1-71.94,71.94h0A71.94,71.94,0,0,1,608.53,229.73ZM.21,301.67C.21,413.67,91,504.44,203,504.44a202,202,0,0,0,137.81-54l65,70.73,65-70.69a202,202,0,0,0,137.77,54c112,0,202.86-90.79,202.86-202.77a202.29,202.29,0,0,0-66.2-149.91l66.35-72.19H664.5a459.49,459.49,0,0,0-517,0H0L66.35,151.8A202.28,202.28,0,0,0,.21,301.67Zm745.55,0A137.23,137.23,0,1,1,608.53,164.44h0A137.23,137.23,0,0,1,745.76,301.67Zm-340-235.33A393.78,393.78,0,0,1,558.11,96.8C471.5,129.94,405.83,207.42,405.83,297.71c0-90.3-65.69-167.79-152.31-200.92A393.7,393.7,0,0,1,405.76,66.34ZM203,164.44A137.23,137.23,0,1,1,65.75,301.67,137.23,137.23,0,0,1,203,164.44Z"/>
        </g>
    </g>
</svg>